<?xml version="1.0" standalone="no"?>
<!DOCTYPE svg PUBLIC "-//W3C//DTD SVG 20010904//EN"
 "http://www.w3.org/TR/2001/REC-SVG-20010904/DTD/svg10.dtd">
<svg version="1.0" xmlns="http://www.w3.org/2000/svg"
 width="1115.000000pt" height="1280.000000pt" viewBox="0 0 1115.000000 1280.000000"
 preserveAspectRatio="xMidYMid meet">
<g transform="translate(0.000000,1280.000000) scale(0.100000,-0.100000)"
fill="#ffffff" stroke="none">
<path d="M5895 12739 c-1414 -73 -2674 -395 -3883 -990 -265 -131 -298 -153
-465 -318 -261 -256 -471 -549 -657 -921 -290 -579 -453 -1182 -532 -1970 -17
-170 -17 -880 0 -1065 61 -659 184 -1233 392 -1840 64 -185 193 -507 273 -680
32 -71 60 -141 61 -155 2 -33 14 -31 152 18 60 21 125 42 143 45 30 6 33 10
27 34 -17 82 -48 288 -61 410 -71 668 118 1086 591 1304 47 22 165 79 262 127
316 156 683 289 964 346 42 9 193 34 335 56 142 22 304 49 361 61 l102 22 78
86 c103 113 218 253 265 322 l38 56 -34 69 c-20 38 -53 103 -74 146 -83 163
-153 438 -194 763 -19 151 -16 573 4 715 50 336 116 557 252 835 131 269 281
473 519 710 256 255 319 286 826 404 96 22 207 46 245 53 93 17 430 17 510 0
413 -90 684 -299 870 -672 26 -52 81 -169 122 -260 184 -405 300 -599 447
-745 201 -199 406 -260 669 -200 56 13 57 13 57 -9 0 -37 -36 -167 -64 -229
-89 -203 -334 -440 -569 -551 -119 -56 -194 -77 -352 -97 -174 -22 -217 -34
-213 -57 2 -11 23 -20 66 -29 57 -11 186 -66 252 -107 14 -9 52 -23 85 -32 71
-20 118 -62 134 -119 19 -67 25 -214 11 -295 -6 -41 -37 -172 -67 -290 -48
-184 -56 -232 -61 -332 -4 -113 -3 -120 23 -174 54 -110 130 -142 421 -179
261 -32 353 -54 472 -110 453 -215 809 -533 916 -818 67 -176 56 -315 -47
-604 -111 -308 -170 -483 -165 -488 3 -3 27 2 54 10 63 19 78 19 70 0 -4 -10
1 -15 14 -15 25 0 26 -17 3 -24 -10 -2 -50 -8 -90 -11 l-72 -7 -17 -44 c-9
-25 -14 -47 -11 -50 3 -3 72 -1 153 5 284 20 563 24 734 11 l165 -12 59 64
c109 118 231 321 324 538 391 912 472 2366 206 3725 -148 754 -407 1462 -736
2005 -182 301 -334 498 -562 726 -217 218 -385 348 -619 482 -95 54 -96 54
-462 132 -567 121 -1104 189 -1730 220 -235 11 -763 11 -990 -1z"/>
<path d="M6012 11195 c-82 -19 -183 -59 -254 -101 -77 -47 -163 -142 -185
-205 -27 -76 -140 -162 -183 -139 -30 16 -25 60 15 115 19 27 33 51 31 53 -7
7 -136 -57 -208 -103 -102 -66 -213 -161 -309 -263 -230 -246 -438 -693 -524
-1127 -61 -309 -78 -695 -41 -950 27 -195 120 -542 180 -678 14 -31 23 -57 21
-57 -10 0 -117 206 -150 289 -99 252 -140 522 -132 876 11 474 113 896 317
1310 95 193 178 320 279 427 121 129 202 179 483 298 145 62 248 122 248 145
0 7 -6 18 -14 25 -16 12 -31 7 -298 -108 -248 -108 -343 -169 -470 -300 -303
-315 -551 -955 -609 -1575 -15 -165 -7 -538 15 -667 78 -453 261 -810 514
-999 84 -64 122 -70 70 -12 -13 13 15 -8 62 -48 79 -66 147 -101 198 -101 9 0
1 -17 -22 -49 -93 -126 -198 -452 -222 -683 l-7 -68 26 0 c14 0 81 18 149 39
152 48 218 60 218 38 0 -18 -52 -85 -144 -187 -189 -211 -171 -326 84 -529
132 -105 260 -194 268 -187 13 14 -19 44 -164 153 -268 201 -323 289 -260 411
14 26 66 94 115 151 115 131 158 198 142 214 -25 24 -130 11 -264 -32 -71 -24
-131 -40 -134 -37 -10 9 18 167 52 301 54 213 128 378 212 476 l46 54 -6 125
c-4 69 -11 154 -17 190 -18 113 -43 220 -51 220 -12 0 -22 -126 -14 -193 9
-82 -1 -69 -19 24 -13 63 -21 153 -51 544 l-4 60 34 -101 c35 -108 68 -178
120 -260 47 -73 56 -130 65 -399 7 -230 12 -275 30 -275 12 0 23 37 15 50 -3
5 -10 112 -15 237 -4 126 -12 239 -16 253 -5 20 1 16 31 -20 80 -96 334 -338
408 -388 128 -88 229 -123 309 -108 38 7 81 41 75 59 -4 12 113 102 219 168
154 96 302 224 460 399 289 322 403 546 408 800 l1 95 159 -3 c446 -10 823
110 951 303 77 116 15 159 -95 66 -42 -36 -34 -52 11 -21 30 22 31 22 20 3
-19 -37 -108 -109 -178 -145 -144 -76 -361 -123 -607 -134 -316 -14 -629 52
-908 192 -228 114 -348 206 -628 479 -199 194 -282 260 -400 321 -72 36 -202
45 -312 20 -137 -31 -136 -56 2 -31 111 21 194 16 275 -15 64 -25 62 -39 -2
-21 -53 15 -157 13 -228 -4 -33 -8 -77 -14 -97 -15 -21 0 -38 -3 -38 -6 0 -4
24 -33 54 -65 34 -37 62 -79 75 -114 24 -63 27 -161 7 -187 -11 -16 -14 -8
-19 59 -7 87 -48 186 -96 226 -16 13 -34 34 -40 46 -14 24 -46 21 -68 -6 -16
-21 -103 -229 -103 -247 0 -8 7 -19 16 -24 14 -8 14 -13 -6 -52 -12 -23 -33
-54 -48 -69 l-26 -26 -14 35 c-17 42 -10 93 28 213 16 48 23 84 16 78 -6 -5
-41 -70 -76 -145 -36 -74 -68 -135 -72 -135 -16 -2 24 198 58 288 13 35 23 66
21 67 -8 8 -109 -107 -141 -160 -44 -73 -45 -55 -6 66 36 113 104 233 189 335
l64 76 21 -24 c12 -14 29 -36 38 -49 17 -25 17 -24 18 40 1 148 68 323 169
445 139 169 362 289 612 330 97 15 250 19 329 7 41 -6 31 -10 -114 -35 -569
-102 -835 -260 -920 -546 -18 -61 -22 -186 -6 -176 6 3 10 18 10 32 0 15 7 56
16 92 59 239 258 399 604 488 71 18 470 93 495 93 2 0 11 7 19 16 15 14 21 14
73 -1 79 -23 208 -84 281 -134 71 -48 178 -145 194 -175 7 -14 -3 -8 -28 16
-54 50 -151 111 -228 141 -65 27 -185 52 -208 45 -7 -3 17 -24 52 -48 82 -55
262 -235 320 -320 l44 -65 -99 100 c-209 210 -388 291 -665 302 -162 7 -257
-10 -369 -62 -167 -80 -323 -223 -371 -343 -7 -18 -10 -35 -8 -38 3 -2 28 11
55 29 99 66 308 118 466 116 l72 -1 -65 -12 c-75 -14 -164 -51 -156 -65 4 -5
26 -1 53 9 178 67 375 4 613 -196 41 -34 138 -126 215 -203 123 -124 165 -158
165 -134 0 17 -92 122 -190 217 -178 171 -314 273 -440 328 -48 21 -56 27 -30
22 59 -10 214 -78 297 -129 108 -67 284 -246 392 -400 190 -271 260 -362 342
-447 74 -75 83 -88 63 -88 -26 0 -129 37 -191 68 -75 39 -290 227 -600 524
-94 91 -199 182 -232 202 -188 115 -449 147 -646 81 -91 -30 -176 -79 -220
-125 l-30 -32 45 23 c59 30 179 32 260 5 157 -53 275 -138 448 -323 203 -217
410 -376 637 -487 260 -128 492 -205 721 -241 146 -23 365 -17 479 15 112 31
119 38 29 34 l-79 -3 50 15 c84 26 83 27 -15 35 -153 11 -306 62 -390 130 -21
17 -22 20 -5 15 56 -14 139 -16 220 -6 137 17 137 17 48 60 -92 46 -176 113
-235 190 -44 58 -125 217 -115 227 9 8 65 -35 158 -123 141 -133 353 -274 392
-261 7 2 -2 11 -19 20 -59 30 -154 118 -214 198 -75 100 -125 203 -190 394
-83 244 -236 537 -408 780 -81 114 -242 272 -329 324 -161 95 -343 120 -523
72 -106 -28 -268 -96 -382 -160 -49 -27 -88 -47 -88 -44 0 3 23 32 51 64 127
147 332 231 564 231 345 1 649 -196 912 -591 114 -171 196 -349 303 -656 113
-327 222 -500 359 -569 25 -13 36 -15 45 -6 8 8 2 18 -24 37 -19 14 -65 56
-101 93 -84 86 -146 204 -227 435 -122 344 -197 509 -317 689 -200 301 -430
493 -690 577 -58 18 -97 23 -230 25 -112 2 -179 -1 -223 -11z m-995 -1508 c-5
-78 -45 -214 -46 -159 -1 13 -5 31 -11 41 -7 14 -2 41 16 97 14 44 27 85 30
92 2 6 6 12 10 12 4 0 4 -37 1 -83z m38 -197 c-9 -39 -51 -90 -76 -90 -16 0
-19 7 -19 47 0 37 3 44 12 35 21 -21 48 -13 66 17 20 36 26 33 17 -9z m119
-204 c-19 -41 -34 -79 -34 -85 0 -6 -4 -11 -9 -11 -5 0 -11 21 -13 48 -4 57
23 108 62 115 14 2 26 5 27 6 1 0 -14 -32 -33 -73z m-89 34 c15 -16 17 -22 7
-32 -7 -7 -12 -21 -12 -32 0 -19 -1 -19 -23 2 -51 48 -127 46 -185 -3 -42 -35
-61 -83 -72 -177 -18 -152 19 -310 90 -383 l29 -30 -19 -75 c-67 -263 -67
-613 -1 -831 11 -35 27 -103 36 -152 8 -48 18 -94 21 -102 12 -31 -13 -13 -49
37 -139 190 -192 463 -152 787 23 184 17 262 -25 366 -71 172 -42 408 64 523
103 112 234 158 291 102z m-62 -88 c8 -9 21 -31 27 -47 11 -30 11 -30 -23 8
-38 41 -69 47 -117 22 -27 -14 -36 -28 -45 -74 -2 -11 -8 -29 -14 -38 -10 -17
-10 -17 -10 2 -1 33 35 100 64 123 34 27 95 29 118 4z m740 -181 c4 -4 0 -25
-9 -46 -9 -21 -14 -51 -12 -67 5 -32 4 -32 -58 -16 -32 9 -50 20 -59 38 -16
31 -28 87 -21 98 6 9 148 3 159 -7z m-878 -228 c14 -44 31 -85 38 -91 6 -5 31
-15 55 -22 54 -14 62 -33 62 -148 0 -193 102 -467 242 -653 78 -104 284 -317
366 -379 115 -87 246 -139 350 -140 l37 -1 -25 -14 c-108 -62 -320 55 -590
325 -277 277 -393 511 -407 822 -6 134 -12 159 -35 141 -26 -22 5 -640 39
-758 3 -11 3 -17 -1 -14 -10 9 -56 174 -76 269 l-18 85 -6 -45 c-4 -25 -11
-99 -15 -165 l-7 -120 -9 120 c-10 145 4 347 35 490 12 55 26 107 30 116 6 11
0 24 -22 45 -57 53 -98 188 -97 314 l1 65 14 -81 c7 -44 25 -117 39 -161z
m1251 66 c8 -13 -23 -41 -81 -70 l-40 -21 31 29 c18 17 35 44 39 61 6 27 9 30
25 22 10 -6 22 -15 26 -21z m-325 -55 c42 -19 86 -34 97 -34 12 0 24 -5 28
-12 19 -30 -186 31 -231 69 l-30 25 30 -7 c17 -3 64 -22 106 -41z m824 -128
c2 -29 10 -46 31 -64 28 -24 28 -24 4 -17 -45 14 -78 34 -99 61 -28 36 -26 52
7 57 49 8 54 4 57 -37z m285 -51 c-6 -8 -24 -18 -40 -24 l-30 -10 21 28 c14
20 27 27 40 24 15 -4 17 -9 9 -18z"/>
<path d="M7400 9465 c0 -20 62 -82 124 -123 107 -71 195 -97 333 -97 62 0 109
-3 105 -6 -11 -9 -112 -47 -157 -58 -22 -6 -70 -11 -107 -11 -71 0 -91 -13
-37 -24 116 -23 276 26 448 138 39 25 71 42 71 37 0 -14 -113 -116 -180 -161
-45 -31 -60 -46 -48 -48 49 -10 214 118 262 202 59 103 37 120 -59 47 -69 -53
-121 -85 -97 -60 6 7 12 21 12 30 0 10 9 21 20 24 22 7 28 35 8 35 -7 0 -48
-11 -91 -25 -43 -14 -93 -25 -112 -25 -36 0 -47 -13 -19 -24 24 -9 85 -7 124
4 l35 10 -25 -20 c-114 -87 -426 -22 -566 118 -24 24 -44 41 -44 37z"/>
<path d="M7201 8786 c-6 -8 -16 -54 -22 -102 -30 -274 -156 -528 -368 -747
-110 -114 -209 -196 -441 -362 -113 -81 -216 -157 -230 -168 -23 -18 -23 -19
-3 -13 26 8 37 -7 24 -32 -9 -16 -1 -29 50 -78 78 -76 93 -107 130 -262 30
-130 42 -162 55 -149 17 17 -27 210 -71 311 -28 63 196 -154 237 -229 38 -71
78 -217 78 -285 0 -45 -4 -61 -21 -76 -19 -17 -22 -18 -68 -1 -27 9 -51 17
-55 17 -13 0 -5 -31 25 -86 26 -49 30 -67 26 -107 -5 -56 -82 -217 -103 -217
-17 0 -17 -6 2 82 8 40 16 109 16 153 2 97 -7 118 -98 217 -36 39 -62 74 -57
79 21 21 137 -30 208 -93 l35 -30 0 56 c0 31 -9 85 -21 119 -19 58 -128 271
-135 264 -2 -2 1 -19 6 -38 13 -44 13 -114 -1 -161 -19 -69 -30 -52 -59 87
-27 130 -105 293 -148 310 -13 5 -13 3 1 -12 36 -41 77 -183 52 -183 -8 0 -17
-29 -24 -77 -17 -103 -58 -280 -71 -301 -8 -13 -9 -11 -4 11 3 15 3 39 0 53
-6 23 -11 26 -37 20 -16 -3 -55 -23 -87 -44 -74 -50 -110 -62 -192 -62 -124 0
-217 54 -240 141 -13 46 1 103 26 113 42 16 76 5 124 -40 29 -27 56 -44 67
-42 10 2 25 23 36 53 29 78 32 80 128 65 81 -13 83 -13 101 10 24 29 18 57
-29 164 -20 44 -38 98 -40 120 l-5 41 -64 -3 c-57 -3 -74 0 -137 31 -89 42
-144 85 -306 241 -70 66 -151 141 -180 165 l-53 44 6 -29 c15 -74 26 -168 31
-274 3 -63 8 -155 11 -204 5 -84 4 -88 -12 -75 -16 12 -17 12 -11 -3 3 -9 11
-36 17 -60 36 -139 126 -382 185 -498 14 -27 75 -134 136 -237 133 -225 132
-223 121 -223 -14 0 -68 80 -108 161 -20 41 -73 130 -116 199 -113 176 -139
233 -214 462 -69 211 -121 348 -132 348 -17 -1 -44 -57 -104 -215 -87 -226
-160 -466 -147 -480 3 -2 36 0 74 5 124 15 315 19 315 7 0 -29 -64 -142 -143
-252 -106 -147 -121 -177 -113 -220 13 -67 148 -234 265 -327 58 -47 157 -108
173 -108 2 0 1 49 0 109 -4 123 11 214 39 242 12 12 33 19 57 19 20 0 66 9
100 20 70 22 82 24 82 13 0 -5 -26 -16 -58 -25 -93 -27 -136 -48 -124 -60 7
-7 27 -5 64 5 69 21 242 54 343 66 313 40 1219 45 1988 11 273 -12 508 -19
522 -16 18 5 25 13 25 30 0 23 -23 41 -40 31 -8 -5 -842 24 -847 29 -1 1 -12
112 -24 246 -28 321 -30 635 -5 775 25 136 75 300 137 442 59 137 74 224 45
268 -10 15 -23 25 -29 22 -9 -3 -11 22 -9 96 2 56 1 133 -3 173 l-7 73 -102
55 c-138 74 -226 104 -259 89 -33 -15 -38 -43 -16 -93 l19 -43 -32 7 c-105 21
-113 21 -139 -15 -13 -19 -48 -60 -77 -92 -77 -84 -88 -122 -48 -162 l25 -24
-65 -48 c-35 -26 -64 -51 -64 -56 0 -23 78 -86 114 -92 35 -7 41 -5 87 41 27
26 51 45 54 42 3 -3 -28 -37 -69 -74 -42 -38 -76 -72 -76 -76 0 -15 61 -38
102 -38 29 0 68 12 117 35 40 19 82 35 93 35 21 0 21 0 2 -21 -10 -12 -36 -35
-57 -51 l-38 -31 -16 23 c-13 19 -18 20 -27 9 -7 -8 -32 -15 -65 -16 -29 0
-58 -6 -63 -11 -27 -27 12 -183 107 -424 38 -96 41 -135 6 -90 -17 23 -27 49
-102 247 -22 61 -53 141 -67 179 -25 67 -25 71 -11 128 17 62 9 76 -16 28 -20
-39 -19 -133 4 -195 10 -27 42 -117 70 -200 49 -138 100 -243 122 -246 5 -1
15 -2 22 -3 22 -2 27 -20 25 -106 l-1 -85 -6 72 c-3 39 -9 74 -13 78 -17 17
-28 -12 -28 -73 l0 -68 -92 1 c-51 0 -108 -2 -126 -5 -33 -5 -34 -4 -58 56
-14 33 -39 77 -56 98 -31 37 -115 86 -150 86 -14 0 -16 5 -9 23 29 76 19 237
-20 342 -21 57 -69 119 -111 145 l-29 17 80 67 c230 192 398 424 479 662 61
178 83 420 33 360z m374 -440 c61 -30 117 -60 126 -67 13 -11 18 -40 22 -132
5 -103 4 -116 -8 -100 -8 10 -15 36 -15 59 -1 115 -65 190 -210 245 -47 18
-50 18 -50 1 0 -10 7 -28 16 -41 17 -23 17 -23 -17 -16 -41 9 -47 14 -30 24
10 7 10 14 -3 40 -36 69 9 66 169 -13z m-175 -83 c68 -16 134 -45 145 -64 4
-6 -13 0 -36 13 -36 19 -60 23 -129 23 -75 0 -93 -4 -146 -30 l-60 -30 46 57
c51 65 43 63 180 31z m-267 -145 c-2 -13 1 -29 6 -37 8 -12 13 -12 35 2 37 25
42 21 9 -7 -28 -25 -55 -22 -66 6 -4 13 8 58 16 58 2 0 2 -10 0 -22z m316 9
c19 -7 36 -17 38 -22 2 -6 -29 -19 -68 -29 -81 -21 -255 -104 -284 -136 -18
-19 -18 -22 -2 -56 l17 -36 -32 7 c-38 9 -74 31 -81 49 -3 8 13 27 36 44 23
17 76 58 117 91 120 98 176 117 259 88z m283 -167 c7 -16 17 -30 22 -30 5 0 6
-30 3 -67 -4 -52 -20 -104 -66 -218 -150 -373 -170 -620 -96 -1214 14 -108 25
-200 25 -205 0 -23 -41 32 -55 73 -25 76 -65 412 -75 626 -9 215 -3 298 32
445 11 48 22 135 24 200 7 171 9 176 68 239 49 52 64 80 80 154 8 35 21 34 38
-3z m-216 -24 c23 -17 24 -17 -95 -46 -106 -25 -186 -61 -201 -90 -18 -34 0
-44 45 -26 21 9 40 15 42 12 2 -2 -19 -13 -47 -25 -36 -16 -60 -20 -85 -15
-19 3 -35 9 -35 13 0 12 145 149 180 170 43 26 164 30 196 7z m-832 -355 c49
-92 68 -222 50 -355 -5 -35 -11 -46 -24 -46 -15 0 -17 6 -13 38 7 51 -21 173
-56 249 -30 62 -51 89 -29 36 6 -16 11 -71 12 -123 1 -77 -3 -102 -18 -130
l-20 -35 -8 45 c-4 25 -5 53 -2 63 8 26 -23 122 -65 204 l-38 72 61 44 61 45
31 -30 c18 -16 43 -51 58 -77z m-246 -16 c-16 -13 -28 -31 -28 -39 0 -10 -6
-13 -15 -10 -8 4 -15 1 -15 -5 0 -16 38 -88 50 -96 12 -7 13 -65 2 -83 -5 -8
-14 7 -25 42 -21 67 -51 106 -81 106 -13 0 -51 -18 -86 -41 -34 -22 -64 -38
-67 -35 -5 5 0 8 127 84 47 28 101 62 120 76 45 32 53 32 18 1z m27 -314 c22
-12 31 -19 20 -15 -61 21 -120 33 -143 28 -20 -4 -33 1 -50 19 l-23 24 78 -17
c43 -9 96 -26 118 -39z m5 -46 c78 -36 115 -47 186 -56 139 -16 186 -32 229
-80 53 -59 71 -106 130 -346 50 -202 72 -263 95 -263 14 0 12 31 -6 81 -14 40
-84 332 -84 351 0 4 18 8 40 8 43 0 48 -5 25 -29 -12 -15 -10 -34 17 -159 18
-79 35 -137 39 -130 16 30 43 179 43 245 1 71 2 73 26 73 47 0 49 -7 33 -115
-8 -55 -32 -167 -54 -250 -21 -82 -49 -189 -61 -237 l-22 -88 -107 0 -107 0
-20 33 c-11 17 -36 83 -57 145 -20 62 -39 111 -42 108 -11 -10 19 -161 43
-221 13 -32 22 -60 21 -61 -1 -1 -82 -5 -181 -9 l-178 -7 32 48 c65 94 88 206
55 264 -20 36 -19 40 18 38 80 -3 108 54 89 182 -14 99 -45 190 -87 260 -30
50 -157 184 -225 239 -44 36 5 25 110 -24z m-224 -330 c-15 -89 -76 -309 -83
-301 -2 2 7 46 21 97 25 96 49 210 63 309 7 51 8 52 11 18 2 -21 -3 -76 -12
-123z m1059 -62 c-13 -156 -58 -333 -121 -485 -13 -32 -24 -71 -24 -88 0 -23
-5 -30 -19 -30 -17 0 -14 15 31 158 61 195 106 376 114 459 4 35 11 63 17 63
6 0 7 -29 2 -77z m-1239 -608 c-4 -19 -12 -35 -18 -35 -6 0 -7 7 -3 18 4 9 10
27 13 40 8 37 15 16 8 -23z"/>
<path d="M6640 7042 c0 -10 13 -65 29 -123 74 -263 65 -368 -35 -430 -26 -15
-33 -26 -28 -38 28 -67 28 -136 -1 -205 -8 -18 -7 -18 19 -1 26 17 27 17 42
-4 8 -11 26 -21 38 -21 31 0 36 31 36 223 0 99 3 146 10 142 6 -4 33 -51 60
-106 64 -126 110 -179 155 -179 62 0 65 5 43 63 -11 29 -42 126 -70 217 -76
253 -141 369 -252 448 -40 29 -46 31 -46 14z"/>
<path d="M6890 7883 c-30 -36 -81 -89 -113 -116 l-57 -50 21 -23 c41 -44 99
-282 99 -410 0 -54 3 -63 31 -90 17 -16 39 -45 49 -64 10 -20 41 -57 69 -83
50 -47 50 -47 121 -47 l70 0 0 29 c0 43 -36 153 -91 275 -94 208 -104 250
-108 462 -1 26 -8 50 -21 64 -22 25 -26 70 -10 101 21 39 -6 17 -60 -48z"/>
<path d="M7000 7779 c0 -11 5 -17 10 -14 6 3 10 13 10 21 0 8 -4 14 -10 14 -5
0 -10 -9 -10 -21z"/>
<path d="M4278 7553 c-41 -54 -116 -145 -166 -203 -50 -57 -90 -106 -88 -108
5 -4 154 47 187 63 31 17 136 127 179 190 l32 47 -18 33 c-46 86 -41 87 -126
-22z"/>
<path d="M4409 7615 c17 -33 31 -51 31 -40 0 6 -10 21 -21 35 -13 17 -17 18
-10 5z"/>
<path d="M4372 7429 c-67 -85 -65 -86 46 -17 34 22 62 45 62 52 0 12 -31 46
-41 46 -2 0 -32 -36 -67 -81z"/>
<path d="M6083 7303 c7 -102 19 -150 48 -188 38 -47 45 -15 16 77 -15 46 -31
109 -37 141 -18 90 -34 72 -27 -30z"/>
<path d="M4423 7328 c-25 -33 -24 -36 12 -25 27 8 32 13 24 24 -14 16 -24 17
-36 1z"/>
<path d="M4284 7295 c-61 -30 -147 -94 -109 -80 11 4 41 14 67 22 40 13 120
77 107 85 -2 2 -31 -10 -65 -27z"/>
<path d="M4945 7285 c-110 -38 -465 -116 -620 -136 l-100 -13 50 -9 c72 -12
213 6 459 59 242 52 268 60 264 83 -3 15 -31 24 -53 16z"/>
<path d="M4035 7204 l-70 -24 64 4 c48 3 69 10 85 25 27 27 12 26 -79 -5z"/>
<path d="M4780 7150 c-43 -18 -153 -45 -290 -71 -215 -41 -275 -119 -300 -389
-19 -219 -33 -699 -24 -854 l9 -148 130 1 c72 1 160 4 196 7 l67 6 6 48 c10
75 -12 227 -60 422 -24 99 -51 218 -59 265 -15 88 -19 215 -7 246 7 16 10 15
43 -7 20 -14 50 -46 67 -73 88 -138 127 -306 162 -703 14 -162 41 -272 90
-377 95 -202 253 -350 410 -384 51 -11 111 -5 94 10 -5 4 -34 13 -65 20 -245
52 -454 327 -492 646 -5 36 1 23 19 -45 64 -242 223 -479 372 -554 58 -29 150
-49 188 -41 75 16 71 17 78 -20 8 -42 -14 -99 -45 -115 -39 -21 -163 -7 -255
29 -87 33 -185 89 -234 133 l-31 27 7 -47 c3 -27 -1 -94 -10 -155 -9 -59 -16
-116 -16 -127 0 -25 48 -39 275 -80 94 -17 202 -42 240 -55 39 -13 71 -22 73
-21 1 2 9 36 18 77 18 86 31 508 20 640 l-7 84 -80 24 c-210 64 -383 233 -434
427 -19 71 -21 220 -4 289 6 28 27 83 45 123 18 41 30 72 26 70 -149 -76 -227
-74 -268 9 -15 30 -19 59 -18 138 1 120 21 225 80 404 24 74 44 136 44 138 0
6 -15 2 -60 -17z"/>
<path d="M4117 6868 c-4 -90 -9 -302 -12 -473 -3 -170 -10 -407 -17 -525 -6
-118 -8 -241 -4 -272 9 -72 38 -115 97 -145 l47 -23 7 -117 c11 -200 54 -585
79 -721 16 -90 36 -159 65 -226 23 -53 41 -100 41 -106 0 -13 16 -13 200 5
129 13 180 14 306 4 133 -11 165 -10 267 5 l116 18 30 -23 c16 -13 30 -26 30
-29 1 -3 -25 -12 -56 -19 -98 -21 -312 -25 -501 -7 -199 18 -325 21 -302 6 8
-5 32 -10 53 -10 43 0 44 -2 18 -38 -69 -98 -96 -378 -70 -729 10 -139 22
-203 36 -190 3 4 35 -20 70 -53 84 -79 150 -127 258 -190 50 -29 79 -50 65
-47 -83 18 -412 29 -690 23 -305 -6 -398 -12 -585 -37 -97 -13 -99 -14 -50
-20 31 -4 39 -6 20 -7 -17 -1 -129 -18 -249 -37 -247 -39 -239 -39 -231 -25 3
6 1 10 -4 10 -6 0 -11 -6 -11 -13 0 -34 -426 -57 -705 -38 -364 25 -473 39
-655 86 l-175 44 69 1 c38 0 155 -12 260 -26 151 -21 208 -24 271 -18 89 8
138 9 570 4 387 -4 400 -2 885 100 274 57 475 82 700 85 287 3 308 11 228 79
-70 61 -244 117 -468 152 -111 17 -548 32 -596 20 -58 -15 -2 -27 157 -35
l164 -8 -138 -2 c-76 0 -181 -6 -234 -12 -94 -10 -163 -6 -163 10 0 18 283 82
468 107 29 4 54 10 57 14 2 4 -98 13 -223 20 -521 29 -1131 -49 -1617 -207
-165 -54 -209 -75 -416 -199 -129 -78 -163 -94 -197 -94 -22 0 -53 -5 -69 -11
-42 -15 -107 -84 -133 -140 -31 -66 -36 -56 -9 17 64 172 206 292 448 378 96
34 355 106 406 112 22 3 99 18 170 34 413 92 743 125 1240 124 368 -1 592 -15
853 -55 106 -16 137 -18 148 -8 38 31 -40 49 -381 86 -227 24 -918 24 -1155 0
-312 -33 -493 -64 -805 -141 -33 -8 -118 -27 -189 -41 -478 -98 -720 -261
-791 -535 -49 -187 -1 -406 118 -536 51 -56 82 -73 100 -55 7 7 -8 29 -50 75
-56 59 -102 135 -118 196 -5 17 3 10 22 -20 95 -147 300 -207 613 -181 69 6
262 22 430 36 168 14 442 38 610 55 701 68 1259 99 1860 101 380 2 388 1 660
-86 80 -25 176 -53 213 -61 82 -17 293 -17 487 -1 l135 12 7 125 c8 150 2 218
-23 259 -36 60 -140 91 -307 91 -52 0 -142 7 -199 16 -112 16 -305 57 -238 49
132 -14 324 -16 500 -5 110 7 213 13 230 14 l29 1 13 -100 c32 -251 125 -634
237 -969 97 -290 162 -437 276 -625 87 -145 180 -325 180 -349 0 -18 20 -25
35 -12 8 6 11 19 8 28 -5 14 -3 14 16 -3 16 -14 41 -20 92 -23 58 -4 68 -7 58
-18 -19 -23 -6 -160 20 -219 29 -67 91 -128 160 -158 105 -47 261 -53 339 -13
38 19 82 72 82 97 0 26 10 24 43 -11 16 -16 36 -30 44 -30 23 0 82 -47 104
-84 41 -67 17 -199 -47 -257 -43 -39 -86 -49 -198 -48 l-101 1 70 13 c125 23
200 69 231 142 27 62 17 67 -38 18 -56 -48 -177 -115 -210 -115 -27 0 -56 17
-68 40 -16 29 9 64 90 129 63 51 110 111 110 142 0 7 -12 1 -27 -14 -89 -84
-299 -108 -502 -56 -41 11 -76 18 -77 16 -2 -2 1 -19 7 -39 15 -58 70 -129
128 -170 58 -40 61 -49 8 -22 -62 32 -114 76 -134 112 -24 43 -40 132 -24 132
6 0 11 11 11 25 0 14 -4 25 -10 25 -5 0 -10 20 -10 45 0 25 -4 45 -10 45 -5 0
-10 -20 -10 -44 0 -25 -4 -47 -8 -50 -14 -8 7 -148 30 -194 25 -53 76 -92 183
-142 93 -44 173 -66 303 -82 177 -23 280 15 335 124 l29 55 41 -10 c55 -14
165 5 230 40 86 47 147 136 147 215 0 54 -33 120 -85 173 -56 56 -189 148
-241 167 -23 8 -38 25 -57 62 -30 62 -75 118 -88 110 -13 -8 -3 -35 36 -102
45 -77 70 -151 61 -185 -7 -30 -43 -52 -101 -62 l-40 -6 28 21 c34 27 34 56 1
101 -51 67 -56 89 -36 171 13 58 21 73 34 70 31 -6 29 18 -11 140 -116 358
-160 674 -148 1057 4 101 8 185 9 187 2 1 95 -4 208 -13 294 -21 780 -21 940
1 384 52 573 169 619 384 36 170 -22 374 -153 538 -148 185 -423 338 -721 400
-134 28 -399 26 -516 -3 -164 -41 -259 -101 -259 -163 0 -16 -5 -32 -11 -36
-6 -3 -19 -20 -30 -38 l-19 -31 0 115 c-1 301 -88 429 -398 584 -175 88 -140
38 48 -69 219 -123 294 -233 307 -450 7 -110 -11 -486 -42 -900 -31 -412 -29
-896 4 -1100 24 -150 67 -327 115 -480 l34 -106 -22 -14 c-11 -7 -34 -17 -51
-21 l-30 -7 19 22 c15 17 17 24 8 33 -10 10 -23 8 -60 -6 -64 -25 -129 -37
-158 -30 -34 9 -30 21 9 28 18 3 66 23 107 43 l75 36 -35 8 c-113 25 -170 217
-191 648 -12 228 -9 393 23 1206 6 171 8 327 4 348 -6 34 -13 40 -79 73 -80
40 -112 66 -133 106 -35 66 -1 166 97 287 28 35 47 66 42 70 -5 3 -29 20 -53
37 -106 72 -287 159 -465 222 -110 39 -126 40 -435 24 l-135 -7 63 -43 c34
-23 62 -45 62 -47 0 -3 -24 8 -52 24 -65 36 -167 71 -208 71 -41 0 -30 -16 17
-25 53 -10 150 -55 224 -106 139 -93 323 -264 384 -356 15 -24 32 -43 37 -43
26 0 89 -240 87 -332 -2 -50 0 -55 -35 130 -14 78 -29 142 -33 142 -4 0 1 -51
11 -112 10 -62 45 -315 78 -563 92 -682 141 -959 225 -1265 62 -224 165 -504
195 -530 10 -8 21 -24 24 -36 5 -16 -1 -24 -31 -39 -21 -10 -45 -18 -54 -16
-9 1 -56 -15 -105 -35 -128 -52 -171 -64 -246 -64 -92 0 -110 11 -144 83 -16
34 -71 132 -123 217 -121 202 -155 270 -234 475 -195 511 -327 1076 -327 1410
0 97 -7 138 -21 129 -5 -3 -9 -61 -9 -128 l0 -124 -32 -6 c-86 -15 -400 -28
-553 -23 -285 10 -464 50 -661 147 -154 76 -348 222 -378 285 -20 41 -40 389
-31 530 13 213 60 375 108 375 12 0 81 -7 152 -16 179 -22 408 -22 510 0 44
10 85 22 91 27 8 6 37 -3 85 -26 44 -21 77 -31 82 -26 16 16 -3 32 -99 77 -63
30 -103 56 -123 82 -30 35 -58 98 -48 108 2 2 45 -9 95 -26 96 -32 118 -35
142 -20 22 15 0 26 -90 45 -76 17 -113 35 -72 35 12 0 39 7 60 15 36 15 38 18
40 65 2 48 1 49 -31 54 -17 3 -90 7 -162 10 -79 2 -148 10 -175 19 -25 9 -78
27 -118 41 -122 43 -295 31 -394 -27 -28 -16 -65 -52 -94 -92 -27 -37 -52 -61
-57 -56 -4 4 -11 42 -14 82 -5 65 -3 77 16 101 21 26 37 33 176 70 81 21 159
15 265 -20 135 -44 162 -50 284 -62 75 -7 139 -7 205 1 121 13 131 16 131 40
0 18 -4 19 -52 12 -29 -4 -127 -8 -218 -7 -149 1 -173 4 -250 28 -47 14 -120
36 -163 48 -74 20 -78 23 -59 37 36 29 46 63 45 151 -1 56 -11 131 -32 221
-17 75 -31 157 -31 183 0 25 -4 46 -10 46 -18 0 -11 -129 16 -289 34 -202 27
-264 -34 -295 l-27 -14 -2 57 c-1 31 -18 133 -38 226 -40 185 -48 292 -27 318
13 15 9 17 -29 23 -38 6 -40 8 -24 20 34 25 6 27 -116 9 -132 -19 -229 -16
-278 9 -55 29 -67 109 -52 358 14 246 25 1188 13 1188 -5 0 -12 -73 -15 -162z
m4590 -3304 c359 -93 633 -310 724 -574 18 -52 23 -88 23 -180 1 -106 -1 -119
-27 -171 -80 -163 -286 -248 -682 -280 -146 -11 -520 -8 -862 7 -140 7 -143 7
-143 30 0 48 8 53 48 32 41 -21 14 -21 552 1 357 15 626 63 774 138 66 33 137
101 166 160 21 41 25 62 25 140 0 80 3 94 20 107 16 12 17 15 5 16 -9 0 -22
-6 -29 -12 -11 -11 -14 -10 -18 0 -3 6 -24 38 -48 70 -77 105 -236 208 -400
259 -87 26 -98 27 -295 26 -173 -1 -236 -6 -400 -30 -107 -17 -197 -28 -200
-26 -9 8 73 71 132 103 86 46 124 57 284 80 80 12 157 26 170 30 32 13 30 30
-3 30 -16 0 -35 5 -43 10 -13 8 -12 10 3 10 20 0 23 30 5 49 -19 20 98 7 219
-25z m-4294 -611 c-34 -2 -93 -2 -130 0 -37 2 -9 3 62 3 72 0 102 -1 68 -3z
m210 -10 c-23 -2 -64 -2 -90 0 -26 2 -7 3 42 3 50 0 71 -1 48 -3z m130 -10
c-13 -2 -33 -2 -45 0 -13 2 -3 4 22 4 25 0 35 -2 23 -4z m120 -10 c-7 -2 -21
-2 -30 0 -10 3 -4 5 12 5 17 0 24 -2 18 -5z m2651 -2080 c15 -15 32 -36 38
-48 11 -20 10 -20 -10 -2 -11 11 -25 16 -31 12 -17 -10 13 -71 63 -129 63 -74
86 -116 86 -157 0 -39 -27 -81 -63 -100 -22 -12 -22 -12 1 13 36 40 29 78 -27
145 -26 32 -58 67 -70 77 -40 36 -63 85 -65 137 -1 40 3 54 18 65 26 19 29 18
60 -13z m544 -184 c-35 -104 -105 -147 -220 -135 -38 4 -58 2 -58 -5 0 -21
-59 33 -83 76 l-25 44 31 -22 c18 -12 34 -25 37 -29 9 -12 92 -27 145 -28 65
0 115 26 138 70 17 33 17 66 0 125 -4 17 0 15 25 -8 l30 -29 -20 -59z m105 -2
c130 -97 177 -170 161 -252 -21 -112 -164 -195 -306 -179 -58 7 -58 7 -58 39
0 19 -3 42 -7 52 -5 14 1 12 25 -9 40 -33 86 -43 138 -29 84 23 144 83 144
145 l0 29 -44 -41 c-82 -76 -151 -94 -182 -47 -19 28 -14 49 28 117 28 46 30
53 26 138 -1 50 -2 90 0 90 2 0 35 -24 75 -53z m-940 -164 c17 -18 26 -33 21
-33 -17 0 -70 62 -93 107 -30 61 -26 65 10 7 17 -27 45 -64 62 -81z m627 -3
c10 -5 29 -25 42 -42 l23 -33 -55 39 c-30 22 -57 41 -59 43 -11 8 32 2 49 -7z"/>
<path d="M8131 428 c-37 -35 -67 -66 -64 -70 7 -13 79 30 111 67 28 31 42 65
27 65 -3 0 -36 -28 -74 -62z"/>
<path d="M3665 6984 c-388 -38 -571 -68 -860 -140 -617 -154 -1000 -409 -1171
-779 -115 -249 -121 -598 -18 -1010 13 -55 74 -246 134 -425 61 -179 110 -329
110 -333 0 -5 -23 25 -50 66 -90 135 -226 236 -359 267 -80 19 -199 7 -302
-29 -202 -72 -645 -292 -828 -411 -126 -83 -241 -174 -241 -192 0 -7 7 -5 18
4 20 19 230 152 264 167 22 11 22 11 -2 -6 -14 -10 -47 -36 -75 -59 -28 -22
-76 -52 -108 -67 -35 -16 -57 -32 -57 -42 0 -13 5 -15 23 -8 38 14 359 10 382
-5 17 -11 15 -11 -20 -5 -22 5 -85 8 -140 8 -83 0 -115 -5 -188 -29 -83 -27
-139 -58 -127 -70 3 -3 46 6 95 21 127 36 309 39 407 5 186 -64 338 -234 407
-457 39 -124 52 -155 67 -155 8 0 14 10 15 23 1 39 27 -47 55 -182 15 -69 27
-127 29 -129 1 -1 31 24 66 56 64 59 75 65 489 273 52 27 118 54 145 61 28 7
53 17 57 23 14 19 8 165 -12 267 -11 57 -29 162 -40 233 -49 308 -126 401
-295 354 -95 -27 -548 -238 -654 -306 -29 -19 -54 -33 -56 -31 -10 12 -25 49
-25 62 0 8 10 18 23 22 12 4 63 35 112 69 50 34 180 115 290 180 110 64 215
128 232 141 43 32 52 68 26 102 -24 32 -59 42 -109 32 -95 -19 -497 -134 -574
-165 -46 -19 -86 -33 -88 -31 -9 10 344 165 473 208 80 27 99 30 185 26 85 -3
105 -8 164 -37 206 -101 365 -374 422 -721 14 -86 15 -221 1 -385 -2 -24 2
-31 20 -33 29 -4 42 42 50 173 10 202 -71 570 -236 1070 -141 424 -173 557
-193 803 -21 247 11 441 102 622 50 100 111 179 212 276 239 229 601 381 1178
494 178 35 328 55 575 75 253 20 255 21 255 49 0 13 -6 26 -12 28 -7 2 -116
-6 -243 -18z"/>
<path d="M7690 6872 c0 -16 41 -22 360 -57 551 -61 793 -143 965 -326 180
-192 255 -441 242 -803 -12 -329 -82 -603 -322 -1256 -88 -241 -191 -615 -180
-651 7 -20 39 -26 50 -10 3 6 25 90 50 188 27 109 85 294 150 478 191 535 238
694 287 967 30 166 33 507 5 638 -49 231 -127 381 -265 512 -181 171 -431 257
-882 302 -211 22 -460 31 -460 18z"/>
<path d="M5716 6819 c85 -92 162 -114 209 -63 51 55 17 89 -36 38 -34 -32 -55
-29 -127 21 -64 43 -85 45 -46 4z"/>
<path d="M7671 6723 c19 -51 47 -206 59 -329 l13 -121 161 -12 c88 -7 276 -16
416 -20 274 -8 315 -16 337 -64 7 -14 7 -104 2 -252 -18 -517 -44 -763 -120
-1135 -112 -555 -154 -641 -347 -714 -121 -46 -314 -86 -414 -86 -27 0 -48 -2
-48 -5 0 -3 15 -26 34 -52 38 -54 61 -114 71 -188 3 -27 9 -62 11 -76 l5 -27
92 48 c211 111 428 135 614 70 31 -11 58 -19 59 -17 1 1 8 40 14 86 14 104 42
183 137 383 124 264 193 481 262 826 75 373 97 592 81 793 -42 518 -321 788
-902 873 -106 16 -443 46 -510 46 -37 0 -37 -1 -27 -27z"/>
<path d="M3660 6660 c-25 -4 -117 -13 -205 -19 -511 -36 -771 -79 -1043 -173
-473 -162 -663 -412 -662 -872 0 -185 21 -313 115 -706 30 -124 74 -324 99
-445 25 -121 63 -301 85 -400 49 -222 65 -358 56 -491 l-7 -102 54 14 c29 8
96 19 148 25 52 6 149 19 214 30 66 10 248 31 405 45 309 28 346 28 941 3 235
-10 300 -16 371 -34 l86 -22 17 146 c21 174 31 359 23 394 -5 19 -15 26 -42
31 -104 20 -175 162 -237 476 -21 105 -23 141 -22 405 0 160 3 309 7 332 l7
42 -60 41 c-84 57 -95 77 -94 175 1 162 24 764 34 887 12 147 3 186 -49 212
-32 17 -158 20 -241 6z"/>
<path d="M8523 6013 c10 -112 -3 -292 -42 -544 -17 -106 -46 -313 -65 -459
-20 -146 -52 -353 -71 -460 -67 -373 -67 -372 -56 -383 24 -24 39 4 60 115 57
307 98 581 126 838 9 80 27 224 40 320 45 328 50 466 24 608 -16 82 -26 61
-16 -35z"/>
<path d="M6690 6040 c-91 -5 -266 -14 -390 -19 -408 -20 -574 -33 -597 -47
-25 -16 -24 -10 -53 -319 -32 -332 -35 -483 -16 -680 39 -401 78 -652 112
-717 18 -36 31 -36 626 -44 960 -12 1766 28 1817 90 12 15 78 312 95 433 66
450 108 1009 88 1157 -6 43 -14 82 -19 86 -4 5 -186 20 -403 35 -430 30 -952
40 -1260 25z"/>
<path d="M5546 5938 c-27 -426 -32 -843 -16 -1167 14 -281 47 -463 106 -588
21 -43 30 -54 48 -52 11 1 57 -6 101 -17 108 -26 447 -25 730 1 165 15 301 19
770 20 569 2 676 7 840 41 39 8 73 14 78 14 4 0 7 10 7 21 0 24 1 24 -155 -4
-150 -28 -375 -37 -845 -35 -413 2 -490 0 -693 -20 -230 -22 -529 -29 -713
-16 l-89 7 -37 81 c-98 217 -125 537 -113 1349 4 303 3 467 -3 467 -6 0 -13
-46 -16 -102z"/>
<path d="M4170 5228 c0 -231 43 -522 111 -757 39 -135 79 -242 95 -260 29 -31
25 19 -6 101 -100 258 -162 572 -177 891 -3 76 -10 140 -15 143 -4 3 -8 -50
-8 -118z"/>
<path d="M1285 4805 c-113 -37 -110 -39 30 -22 92 11 100 14 103 35 4 30 -10
28 -133 -13z"/>
<path d="M9625 4831 c-71 -5 -167 -12 -212 -16 l-81 -7 -19 -46 c-10 -26 -19
-50 -21 -54 -2 -4 28 3 66 16 212 72 517 83 822 30 47 -9 99 -18 115 -21 27
-4 34 0 62 40 31 44 31 45 10 52 -34 10 -598 14 -742 6z"/>
<path d="M9635 4754 c-164 -22 -310 -59 -352 -89 -13 -9 -23 -23 -23 -32 0
-18 58 -14 210 17 384 79 519 78 686 -5 40 -19 74 -35 76 -35 5 0 68 86 68 93
0 2 -17 7 -37 11 -21 4 -76 13 -123 22 -81 14 -439 27 -505 18z"/>
<path d="M1285 4740 c28 -12 73 -12 80 0 4 6 -14 10 -47 9 -39 0 -48 -3 -33
-9z"/>
<path d="M1415 4740 c-3 -5 -2 -10 4 -10 5 0 13 5 16 10 3 6 2 10 -4 10 -5 0
-13 -4 -16 -10z"/>
<path d="M9212 4603 c-13 -26 -34 -115 -28 -120 5 -5 49 78 60 115 9 27 -18
31 -32 5z"/>
<path d="M9515 4556 c-305 -60 -544 -277 -609 -556 -20 -85 -22 -270 -2 -270
10 0 15 24 19 93 19 329 223 580 542 668 61 17 108 22 195 23 166 0 287 -31
461 -121 178 -91 237 -160 280 -320 31 -114 29 -354 -5 -663 -14 -129 -33
-320 -41 -425 -44 -541 -111 -1034 -211 -1540 -113 -573 -240 -845 -429 -915
-109 -41 -282 -26 -460 38 -58 21 -56 9 -26 182 51 300 74 641 75 1157 1 371
-2 438 -19 421 -3 -3 -10 -178 -15 -389 -17 -658 -52 -1061 -116 -1318 -20
-77 -20 -77 91 -119 108 -41 217 -62 318 -62 274 0 421 165 551 615 115 401
250 1272 301 1945 9 113 25 284 36 380 30 255 36 552 15 661 -23 115 -73 218
-135 278 -88 85 -272 178 -439 222 -100 26 -282 33 -377 15z"/>
<path d="M9461 4435 c-283 -80 -499 -369 -527 -705 l-7 -79 39 -7 c57 -10 89
-29 125 -74 l32 -39 33 56 c117 194 215 292 420 419 239 149 301 204 311 284
5 36 2 43 -33 79 -26 25 -58 45 -94 56 -77 24 -231 29 -299 10z"/>
<path d="M10022 4250 c-140 -50 -285 -147 -474 -316 -104 -94 -248 -248 -248
-266 0 -18 21 -3 150 115 295 267 466 383 621 423 112 29 166 4 222 -101 44
-83 79 -77 63 10 -8 41 -79 123 -123 141 -45 19 -148 16 -211 -6z"/>
<path d="M4661 4157 c-5 -13 -21 -76 -35 -140 -92 -409 -37 -662 181 -837 167
-135 354 -214 603 -257 158 -27 579 -19 693 13 22 7 22 51 1 182 -25 151 -9
242 45 272 17 9 24 1 64 -73 77 -140 87 -182 97 -410 10 -223 32 -372 85 -572
74 -283 182 -572 376 -1002 127 -282 179 -381 234 -439 33 -35 37 -36 83 -31
39 4 294 90 311 103 2 2 -8 13 -23 25 -101 80 -221 552 -326 1292 -33 228 -68
530 -81 703 l-12 160 -41 -14 c-54 -18 -132 -9 -202 24 -30 14 -54 29 -54 32
0 4 -30 41 -66 82 -90 102 -97 118 -90 199 11 118 10 125 -17 185 -88 193
-274 311 -557 357 -36 5 -135 14 -220 18 -144 8 -160 11 -220 40 -89 42 -132
48 -380 56 -224 6 -330 18 -386 41 -45 19 -53 18 -63 -9z"/>
<path d="M10037 4105 c-187 -65 -402 -253 -482 -420 -60 -125 -80 -200 -80
-305 0 -84 3 -101 28 -148 15 -30 47 -79 72 -110 24 -32 51 -75 60 -96 25 -60
30 -169 11 -249 -20 -84 -47 -137 -131 -261 -108 -158 -119 -189 -123 -336 -3
-102 2 -164 28 -335 52 -344 49 -560 -11 -955 -11 -74 -24 -162 -29 -195 -10
-63 -4 -135 11 -135 5 0 9 10 9 22 0 17 3 19 12 10 21 -21 54 -13 140 30 123
63 236 179 305 313 72 142 102 237 208 663 201 810 282 1335 292 1897 7 374
-7 496 -65 574 -49 65 -138 78 -255 36z"/>
<path d="M300 3828 c-83 -57 -106 -144 -97 -367 53 -1231 95 -1539 291 -2126
102 -306 231 -648 271 -721 82 -148 218 -221 392 -212 57 3 58 3 61 36 4 35
11 39 31 20 28 -27 -11 1146 -44 1319 -8 43 -38 152 -66 243 -91 294 -89 286
-99 590 -12 376 -25 469 -82 625 -128 349 -354 596 -560 612 -55 4 -68 2 -98
-19z"/>
<path d="M3 3443 c8 -48 21 -188 47 -478 90 -1010 220 -1695 411 -2178 53
-132 86 -197 157 -303 99 -147 208 -240 331 -279 73 -24 213 -17 294 14 72 28
111 60 98 80 -8 13 -24 10 -103 -17 -124 -42 -179 -48 -258 -28 -80 21 -133
51 -208 121 -306 283 -526 1076 -672 2425 -62 564 -78 680 -92 680 -6 0 -8
-15 -5 -37z"/>
<path d="M7628 3422 c-18 -62 -10 -88 16 -51 16 23 23 109 9 109 -5 0 -16 -26
-25 -58z"/>
<path d="M4960 2314 c-25 -3 -117 -13 -205 -24 -290 -35 -366 -40 -775 -50
-813 -20 -1889 -73 -2138 -106 -320 -42 -518 -36 -625 18 -21 11 -37 14 -37 8
0 -6 21 -21 47 -32 141 -62 272 -70 588 -33 220 25 449 37 1415 74 146 6 474
15 730 21 471 11 519 14 805 52 184 24 410 28 499 9 49 -11 60 -11 67 1 14 22
5 32 -42 46 -44 14 -245 23 -329 16z"/>
<path d="M9160 2299 l-35 -19 -21 -152 c-12 -84 -43 -263 -68 -398 -59 -311
-55 -290 -68 -290 -15 0 -6 67 47 342 47 240 82 474 73 483 -3 3 -17 1 -32 -5
-15 -5 -60 -12 -99 -15 -40 -3 -90 -8 -113 -11 l-40 -5 7 -62 c22 -178 31
-519 20 -742 -15 -303 -29 -440 -84 -835 -1 -9 7 -16 20 -18 26 -4 21 -20 62
198 50 259 62 377 71 730 5 184 12 364 15 400 9 101 36 273 45 290 16 29 23
-18 12 -78 -22 -113 -32 -262 -42 -595 -10 -368 -24 -503 -74 -762 -18 -93
-31 -173 -29 -177 2 -5 28 -8 56 -8 29 0 67 -4 85 -9 27 -8 32 -7 32 7 0 96
33 432 80 822 17 135 39 322 50 415 20 163 61 432 75 488 8 31 3 32 -45 6z"/>
<path d="M7835 2240 c-19 -21 -15 -36 8 -27 15 6 30 47 18 47 -5 0 -16 -9 -26
-20z"/>
<path d="M6060 2235 c-159 -17 -556 -41 -910 -55 -151 -6 -277 -13 -279 -16
-15 -15 44 -18 327 -17 312 1 498 9 861 39 182 15 226 24 218 47 -5 17 -71 17
-217 2z"/>
<path d="M8409 2233 c-15 -3 -14 -11 3 -81 32 -123 35 -379 9 -627 -12 -110
-26 -317 -31 -460 -5 -143 -10 -286 -11 -317 -4 -100 7 -72 24 65 10 72 44
279 77 459 33 180 67 380 75 445 18 131 32 455 21 497 -6 25 -8 26 -79 25 -39
-1 -79 -3 -88 -6z"/>
<path d="M8608 2141 c9 -191 -23 -462 -107 -911 -43 -229 -79 -465 -83 -543
-2 -54 10 -67 82 -91 45 -15 140 -32 140 -25 0 2 11 83 25 179 45 319 56 469
62 796 5 292 -3 523 -24 657 -6 37 -6 37 -53 37 l-47 0 5 -99z"/>
<path d="M8262 2223 l-33 -4 8 -127 c12 -185 6 -740 -10 -1012 -14 -231 -14
-235 5 -250 11 -8 42 -35 69 -59 40 -35 49 -40 49 -25 5 246 24 612 40 759 32
307 25 554 -21 692 -11 35 -18 37 -107 26z"/>
<path d="M7836 2181 c-9 -16 -26 -64 -38 -108 -21 -70 -23 -99 -23 -283 0
-161 4 -223 19 -290 21 -101 79 -281 105 -329 l19 -35 6 50 c3 27 15 164 27
304 24 287 22 575 -3 665 -14 49 -15 50 -56 53 -37 3 -42 0 -56 -27z"/>
<path d="M7977 2158 c26 -92 28 -387 4 -653 -11 -126 -24 -275 -27 -330 l-7
-100 47 -61 c25 -34 61 -73 80 -88 l35 -26 5 42 c5 41 18 321 31 653 6 143 -9
542 -21 591 -6 23 -11 24 -84 24 l-78 0 15 -52z"/>
<path d="M6130 2129 c-30 -10 -67 -20 -81 -23 l-27 -6 -4 -417 c-5 -484 5
-887 27 -1093 8 -80 18 -171 22 -203 l6 -57 -52 0 c-28 0 -51 1 -51 3 0 1 -9
79 -19 172 -33 288 -44 625 -36 1128 l7 457 -172 0 c-160 0 -172 -1 -165 -17
52 -132 52 -373 0 -708 -42 -278 -53 -452 -36 -621 12 -121 45 -352 57 -399 5
-19 2 -25 -9 -25 -17 0 -19 8 -41 145 -33 204 -40 289 -40 465 0 163 5 212 37
417 56 351 59 532 11 693 -14 49 -17 51 -47 48 -27 -3 -31 -7 -29 -26 2 -13
-7 -35 -21 -52 -15 -17 -30 -54 -38 -97 -21 -103 -17 -603 9 -1058 12 -209 23
-415 24 -457 l3 -76 -100 -6 c-121 -7 -223 -11 -925 -36 -601 -21 -594 -21
-1170 -52 -716 -38 -1326 -28 -1666 27 -28 5 -35 14 -66 83 -74 163 -85 254
-98 797 -16 676 -37 907 -81 879 -6 -4 -7 -10 0 -17 12 -16 30 -436 37 -887 3
-201 10 -411 15 -468 22 -233 110 -451 166 -416 12 7 42 5 102 -8 47 -9 149
-26 226 -35 205 -26 858 -24 1435 5 239 12 635 29 880 37 245 9 609 22 810 30
394 15 1022 32 1593 41 l358 6 -3 22 -3 21 -388 -4 -389 -4 9 434 c15 787 6
1048 -42 1254 -13 58 -12 75 5 75 21 0 57 -237 71 -473 8 -136 8 -272 0 -495
-6 -169 -11 -414 -11 -544 l0 -238 29 0 c35 0 41 16 41 124 0 43 12 250 26
460 20 294 25 436 22 621 -4 238 -4 241 -37 345 -34 109 -81 209 -110 232 -13
12 -25 11 -71 -3z m-374 -136 c-33 -234 -39 -344 -39 -678 0 -264 5 -418 22
-625 25 -326 24 -310 7 -310 -14 0 -14 2 -41 385 -32 471 -29 829 10 1133 17
132 20 142 36 142 8 0 10 -14 5 -47z"/>
<path d="M4065 2108 c13 -46 24 -518 24 -1120 l1 -618 90 0 c102 0 92 -10 109
110 20 136 22 299 7 555 -21 353 -48 1011 -44 1057 l4 38 -99 0 c-98 0 -99 0
-92 -22z"/>
<path d="M4282 1983 c3 -82 16 -357 28 -613 29 -651 34 -670 43 -160 3 239 11
487 17 550 12 143 39 322 50 341 20 32 22 -8 7 -109 -30 -193 -38 -321 -47
-822 -9 -450 -21 -653 -46 -772 -5 -25 -3 -27 38 -33 24 -4 61 -5 83 -3 l40 3
17 129 c9 71 21 211 28 310 30 481 42 623 61 766 21 157 30 424 15 468 -5 15
-15 22 -34 22 l-27 1 28 15 c23 12 26 18 17 34 -10 19 -22 20 -168 20 l-157 0
7 -147z"/>
<path d="M3849 2113 l-47 -4 -6 -72 c-19 -214 -26 -473 -26 -1034 l0 -623 103
0 104 0 6 173 c14 355 0 1359 -21 1512 -8 56 -10 57 -113 48z"/>
<path d="M3700 2101 l-55 -6 -8 -205 c-11 -300 -13 -1277 -4 -1402 l9 -108 49
0 49 0 0 613 c0 553 7 813 26 1040 4 43 3 76 -2 75 -5 -1 -34 -4 -64 -7z"/>
<path d="M3456 2078 c-38 -5 -72 -10 -74 -13 -3 -2 3 -195 13 -427 18 -426 17
-604 -5 -1013 -6 -104 -8 -202 -4 -218 5 -27 7 -27 81 -27 l75 0 -6 28 c-13
53 -18 884 -8 1272 6 217 8 398 4 401 -4 3 -38 2 -76 -3z"/>
<path d="M5355 2074 c-11 -2 -50 -6 -86 -9 l-66 -6 -6 -167 c-4 -92 -16 -291
-27 -442 -31 -420 -40 -679 -29 -884 5 -99 11 -193 15 -209 l6 -27 100 0 100
0 -7 147 c-3 82 -15 306 -26 498 -21 387 -25 811 -8 932 6 43 21 99 34 126 13
26 23 46 22 46 -1 -1 -11 -3 -22 -5z"/>
<path d="M3295 2063 c-22 -2 -51 -6 -64 -9 l-24 -5 6 -182 c4 -100 18 -303 33
-452 33 -343 42 -769 21 -925 -8 -58 -13 -107 -12 -110 2 -3 25 -3 53 -2 l49
4 7 211 c3 117 8 311 12 432 4 142 0 353 -10 596 -9 206 -16 392 -16 412 0 20
-3 36 -7 35 -5 -1 -26 -3 -48 -5z"/>
<path d="M4722 1899 c0 -102 -8 -233 -22 -344 -11 -99 -30 -326 -40 -505 -19
-299 -41 -560 -56 -652 -8 -46 -9 -45 175 -51 l134 -5 -6 252 c-3 138 -14 373
-23 521 -17 284 -14 748 5 870 6 33 9 60 8 61 -1 1 -41 5 -88 9 l-87 7 0 -163z"/>
<path d="M5003 2053 c-85 -4 -78 8 -93 -158 -14 -158 -12 -531 5 -810 9 -132
18 -353 22 -491 l6 -251 90 -7 c50 -3 92 -5 93 -3 2 2 -1 43 -6 92 -18 170
-11 579 15 945 14 190 28 423 32 518 l6 172 -49 -2 c-27 -1 -82 -4 -121 -5z"/>
<path d="M3082 2040 c-34 -4 -65 -10 -68 -13 -9 -8 14 -498 31 -687 8 -85 24
-227 35 -315 11 -88 23 -239 26 -335 2 -96 7 -208 10 -247 l6 -73 48 0 c38 0
50 4 54 18 16 54 27 233 27 417 0 196 -6 285 -46 730 -8 94 -18 248 -21 343
-6 149 -9 172 -23 171 -9 -1 -44 -5 -79 -9z"/>
<path d="M2823 2013 l-33 -4 0 -322 c0 -389 12 -629 45 -881 16 -117 25 -239
25 -319 l0 -130 53 7 c28 3 62 6 75 6 22 0 22 2 22 138 0 166 -13 358 -39 569
-34 273 -61 646 -61 841 l0 102 -27 -2 c-16 0 -43 -3 -60 -5z"/>
<path d="M2715 2002 l-40 -3 0 -487 0 -487 -32 -200 c-39 -248 -46 -329 -37
-412 l7 -65 106 7 c58 4 107 8 109 10 13 12 -2 280 -23 440 -25 184 -38 477
-48 1065 l-2 135 -40 -3z"/>
<path d="M1484 1639 c10 -517 40 -997 72 -1137 13 -61 51 -148 60 -140 2 3 0
70 -6 149 -5 79 -11 317 -12 529 l-2 385 37 237 c20 131 37 255 37 277 l0 39
-52 7 c-29 3 -73 9 -97 12 l-44 6 7 -364z"/>
<path d="M2566 1733 c7 -291 1 -356 -66 -773 -38 -235 -66 -456 -72 -568 l-3
-52 65 0 c36 0 70 4 76 8 7 4 11 52 12 127 1 82 12 196 36 360 l36 240 0 420
c0 231 -3 437 -6 458 -6 35 -8 37 -46 37 l-39 0 7 -257z"/>
<path d="M1715 1920 c-4 -30 -21 -145 -38 -255 l-32 -200 1 -460 c0 -440 11
-652 34 -695 12 -22 75 -40 140 -40 l52 0 -6 53 c-12 105 -56 646 -62 767 -5
96 -1 172 16 325 22 197 23 321 4 497 l-7 56 -48 4 -48 3 -6 -55z"/>
<path d="M2294 1973 l-72 -4 9 -37 c50 -215 57 -591 20 -1065 -11 -154 -21
-340 -21 -414 l0 -134 43 3 42 3 6 60 c4 33 12 112 18 175 7 63 32 243 56 400
25 157 47 301 50 320 17 112 24 301 18 488 l-6 212 -46 -2 c-25 -1 -78 -4
-117 -5z"/>
<path d="M1926 1962 c-2 -4 2 -67 10 -140 13 -120 13 -148 -2 -280 -35 -314
-30 -509 33 -1196 l6 -68 41 6 c23 4 44 10 48 14 4 4 11 300 17 657 6 358 13
732 17 833 l6 182 -85 0 c-47 0 -88 -3 -91 -8z"/>
<path d="M2126 1808 c-4 -90 -11 -451 -16 -803 -6 -352 -13 -655 -17 -674 l-6
-34 47 6 c26 4 52 9 57 13 5 3 9 62 9 132 0 70 9 249 20 397 39 520 37 790 -8
1030 -17 89 -17 90 -48 93 l-32 3 -6 -163z"/>
<path d="M6377 1363 c-3 -120 -15 -346 -26 -503 -11 -157 -21 -334 -23 -395
l-3 -110 40 3 c22 1 65 5 96 8 l56 6 7 282 c4 155 4 356 1 446 l-7 165 -53
115 c-29 63 -58 134 -64 158 -7 23 -13 42 -15 42 -2 0 -6 -98 -9 -217z"/>
<path d="M6628 748 c-1 -164 -2 -313 -2 -330 -1 -32 1 -33 34 -30 101 7 97 4
106 90 4 42 8 136 8 208 l0 132 -56 83 c-30 46 -63 98 -71 114 -15 28 -16 11
-19 -267z"/>
<path d="M6801 659 c0 -74 -3 -162 -7 -197 -5 -53 -4 -61 8 -57 11 4 18 28 22
73 4 37 14 109 23 161 l15 93 -30 30 -30 30 -1 -133z"/>
<path d="M6876 631 c-8 -47 -19 -117 -22 -154 -7 -68 -7 -68 17 -63 81 16 75
12 88 73 6 31 11 89 11 128 l0 72 -39 15 -39 16 -16 -87z"/>
<path d="M9025 469 c-22 -5 -173 -14 -335 -19 -162 -6 -296 -13 -299 -16 -16
-16 35 -23 199 -30 203 -7 451 8 507 31 44 19 44 45 1 44 -18 -1 -51 -5 -73
-10z"/>
<path d="M7701 194 c-18 -8 -49 -14 -67 -14 -40 0 -45 -17 -8 -26 30 -8 97 10
113 30 18 21 0 26 -38 10z"/>
</g>
</svg>
